<svg width="89" height="50" fill="none" xmlns="http://www.w3.org/2000/svg"><g filter="url(#a)"><path d="M13.04 21.4c-.22.07-.42.12-.59.15a19.28 19.28 0 0 1 .29-.41 9.04 9.04 0 0 0 .62.05l-.32.21ZM25.38 5.75a1.5 1.5 0 0 0-.28-.25 8.38 8.38 0 0 0-5.43-2.3 8.86 8.86 0 0 0-6.19 1.82C11.5 6.51 9.43 8.87 7.26 12a74.09 74.09 0 0 0-4.18 7.3c-.05.16-.09.32-.12.49a6.28 6.28 0 0 0-.58 1.14 4.25 4.25 0 0 0 .04 2.87c.33.77.82 1.42 1.5 1.92l.01.01a5 5 0 0 0 3.88.87 4.81 4.81 0 0 0 .93.42 9.97 9.97 0 0 0 7.87 0 10.24 10.24 0 0 0 2.99-1.85c.84-.75 1.53-1.56 2.04-2.43.5-.84.85-1.73.94-2.65.08-.8-.04-1.68-.58-2.4.46-.2.9-.44 1.35-.7 2.67-1.58 4.43-3.69 4.19-6.39a9.03 9.03 0 0 0-2.15-4.85Z" fill="#fff" stroke="#fff" stroke-width="3" stroke-linejoin="round"/><path d="m29.15 25.52 2.33-3.3 2.77-3.9c1.01-1.4 2.12-2.97 3.33-4.71.6-.76 1.13-1.74.96-2.84a3 3 0 0 0-1.26-2.14 3.47 3.47 0 0 0-2.22-.65h-.02a3.1 3.1 0 0 0-2.4 1.28l-.36.03a4.11 4.11 0 0 0-3.02 1.32l-.01.01a64.47 64.47 0 0 0-5.2 6.53c-.9 1.25-1.8 2.5-2.66 3.72l-.01.01c-.84 1.22-1.51 2.17-2.03 2.87-.53.7-.95 1.3-1.24 1.81a3.37 3.37 0 0 0-.57 2c.03.88.49 1.55 1.06 2.03.58.5 1.38.84 2.21 1.1.95.29 1.9.4 2.81.27h.03a4.72 4.72 0 0 0 3.56-2.68c.6-.89 1.25-1.8 1.94-2.76Z" fill="#fff" stroke="#fff" stroke-width="3" stroke-linejoin="round"/><path d="M33.1 19.69v.01c-2.68 4.1-4.52 7.28-5.46 9.5a2.34 2.34 0 0 0-.46 1.73c.12.82.66 1.35 1.12 1.68.89.62 1.93.82 3.01.75a4.11 4.11 0 0 0 3.09-1.34c.23-.2.43-.35.58-.46.28-.2.59-.49.9-.82l-.02.8c0 .69.05 1.36.22 1.93.17.55.54 1.3 1.38 1.63a8.64 8.64 0 0 0 2.18.63c.6.05 1.36-.1 2.14-.28.41-.08.76-.26 1.02-.43.3-.19.6-.44.88-.7.57-.55 1.22-1.3 1.95-2.23.64-.8 1.32-1.7 2.04-2.68l2.08-2.88c.69-.92 1.34-1.79 1.97-2.6h.01c.62-.8 1.16-1.43 1.63-1.89h.01a5.73 5.73 0 0 0 1.62-3.6 2.14 2.14 0 0 0 .57-2.17c-.23-.79-.81-1.29-1.37-1.59a6.23 6.23 0 0 0-4.12-.57 6.33 6.33 0 0 0-4.34 2.8c-.1.17-.26.4-.48.68-.02-.8-.1-1.92-.21-3.32a1.5 1.5 0 0 0-.3-.78 3.8 3.8 0 0 0-1.9-1.4 3.8 3.8 0 0 0-2.1-.03c-.63.17-1.24.46-1.81.84a12.58 12.58 0 0 0-2.83 2.6c-.39.49-.81 1.03-1.26 1.63l-.01.02c-.42.6-1 1.45-1.73 2.54Z" fill="#fff"/><path d="M36.1 15.5a16.65 16.65 0 0 1 1.33-1.43c.49-.44.98-.83 1.5-1.17a6.14 6.14 0 0 1 1.8-.84 3.8 3.8 0 0 1 2.11.03c.8.24 1.42.78 1.9 1.4.17.23.27.5.3.78.11 1.4.19 2.52.21 3.32a6.85 6.85 0 0 0 .54-.78 6.33 6.33 0 0 1 4.27-2.7h.01a6.23 6.23 0 0 1 4.12.57c.56.3 1.14.8 1.36 1.6a2.14 2.14 0 0 1-.56 2.17 9.04 9.04 0 0 1-.12.8 5.73 5.73 0 0 1-1.5 2.78l-.01.01c-.47.46-1.01 1.08-1.63 1.89a129.56 129.56 0 0 0-4.06 5.48c-.72.98-1.4 1.88-2.04 2.68-.73.93-1.38 1.68-1.95 2.22-.29.27-.58.52-.88.71-.26.17-.6.35-1.02.43a7.23 7.23 0 0 1-2.2.28 8.64 8.64 0 0 1-2.12-.63 2.43 2.43 0 0 1-1.38-1.63 6.52 6.52 0 0 1-.22-1.93l.03-.8c-.32.33-.63.62-.91.82-.15.11-.35.26-.58.46a4.11 4.11 0 0 1-3.09 1.34 4.64 4.64 0 0 1-3.01-.75c-.46-.33-1-.86-1.12-1.68-.11-.7.15-1.3.46-1.73.94-2.22 2.78-5.4 5.46-9.5v-.01c.73-1.1 1.3-1.94 1.73-2.54l.01-.02c.45-.6.87-1.14 1.26-1.62Zm0 0 1.16.96" stroke="#fff" stroke-width="3" stroke-linejoin="round"/><path d="M60.77 16.31h-.1c-.9-.04-1.72-.02-2.43.04-1.38.1-2.7.44-3.95 1.02h-.02a21.1 21.1 0 0 0-4.73 3.04 20.54 20.54 0 0 0-5.9 8.52c-.37 1.15-.6 2.27-.68 3.33a6.53 6.53 0 0 0 1.33 4.66 8.89 8.89 0 0 0 4.37 2.78c2.58.85 5.24.88 7.93.12 1.07-.31 2.03-.7 2.87-1.17a17.31 17.31 0 0 0 1.91-1.2A8.83 8.83 0 0 0 63 35.74c.57-.73 1-1.5 1.3-2.32.32-.87.43-1.77.29-2.66-.07-.5-.23-.94-.47-1.32l.35-.09c.94-.25 1.7-.83 2.25-1.62a8.16 8.16 0 0 0 1.71-4.18 5.69 5.69 0 0 0-.85-3.78c-1.42-2.1-3.82-3.16-6.8-3.46Zm-6.41 15.6c.1.16.22.32.34.48-.3 0-.6-.05-.93-.12-.37-.1-.74-.31-1.13-.73a.91.91 0 0 1-.03-.7l.03-.07s.03-.1.18-.33l.52-.79-.03.2c-.06.67.19 1.3.64 1.76.12.12.26.22.41.3Zm2.52-4.94h-.12c.7-.33 1.32-.52 1.86-.59.23-.03.39-.03.5-.02h.01l.01.07c-.01.19 0 .36.03.53-.74-.07-1.5-.07-2.3.01Z" fill="#fff" stroke="#fff" stroke-width="3" stroke-linejoin="round"/><path d="M70.98 22.66h-.01c-3.27 2.07-5.96 5.01-8.1 8.79-1.3 2.31-2.04 4.52-2.02 6.57a7.31 7.31 0 0 0 2.32 5.35c.8.94 1.86 1.61 3.11 2.06 2.03.76 4.05.82 5.99.12 1.1-.32 2.14-.81 3.13-1.47a24.61 24.61 0 0 0 7.7-8.52c1.63-2.88 2.46-5.6 2.2-8.09-.02-.35-.06-.7-.1-1.02a4.16 4.16 0 0 1-.04-.4c0-.18-.03-.36-.09-.53a5.6 5.6 0 0 0-2.68-3.21 4.37 4.37 0 0 0-3.35-.4 6.4 6.4 0 0 0-2.7-.73 8.98 8.98 0 0 0-5.36 1.48Zm-1.82 16.08c.54-1.22 1.51-2.58 2.98-4.05.4-.38.86-.81 1.4-1.29-.2.37-.42.74-.66 1.11a16.25 16.25 0 0 1-3.72 4.23Z" fill="#fff" stroke="#fff" stroke-width="3" stroke-linejoin="round"/></g><path d="M71.77 23.94a7.48 7.48 0 0 1 4.48-1.27c1.02.06 1.9.37 2.65.93.87-.5 1.8-.48 2.8.03.9.48 1.56 1.27 1.96 2.4 0 .13.01.34.04.62.05.29.08.6.1.94.23 2.06-.44 4.47-2 7.23a23.12 23.12 0 0 1-7.23 8.01 9.75 9.75 0 0 1-2.77 1.3 6.98 6.98 0 0 1-5-.1 5.64 5.64 0 0 1-2.53-1.69c-2.53-2.39-2.56-5.78-.09-10.15a22.73 22.73 0 0 1 7.59-8.25Zm-4.03 14.31-.07.16-.04.3c-.06.6-.02 1.08.14 1.46.16.36.31.6.45.72l.66-.24c.22-.07.43-.17.62-.3a16.93 16.93 0 0 0 4.64-5.03 19.9 19.9 0 0 0 2.82-6.52 51.1 51.1 0 0 0-5.87 4.83 15.1 15.1 0 0 0-3.35 4.62ZM60.62 17.8c2.73.27 4.63 1.2 5.7 2.8.51.76.71 1.7.6 2.82a6.68 6.68 0 0 1-1.42 3.43c-.38.55-.86.9-1.44 1.06a3.24 3.24 0 0 1-2.97-.53c-.35-.3-.5-.62-.44-.96l-.08-.6c-.23-.78-.94-1.09-2.14-.93a8.83 8.83 0 0 0-3.4 1.31 9.26 9.26 0 0 0-3.83 4.13c-.24.66-.19 1.35.17 2.04.6.71 1.28 1.16 2.04 1.36a5.7 5.7 0 0 0 3.92-.47c.5-.26.76-.48.81-.64l.26-.27c.09-.09.16-.18.23-.28a26.36 26.36 0 0 0 .14.04c-.06-.01-.03 0 .07.05l.14.1c-1.11.52-2.01.43-2.69-.29-.26-.3-.48-.59-.67-.88-.18-.3-.38-.48-.6-.53-.32-.34-.28-.78.12-1.34.17-.22.4-.4.7-.55.32-.16.68-.22 1.08-.2 2.02-.22 3.73.1 5.12.98.62.39.97.9 1.05 1.53.1.61.04 1.26-.2 1.92-.25.67-.6 1.31-1.09 1.93a7.4 7.4 0 0 1-1.34 1.43c-.43.32-1.01.68-1.74 1.08-.71.4-1.56.75-2.54 1.04-2.42.68-4.77.65-7.06-.1-3.32-1.08-4.87-3.05-4.66-5.92.06-.91.27-1.9.62-2.97a19.04 19.04 0 0 1 5.44-7.85 19.62 19.62 0 0 1 4.4-2.81 9.7 9.7 0 0 1 3.44-.88c.64-.06 1.4-.08 2.26-.04Z" fill="#000"/><path d="M34.35 20.52c.72-1.09 1.3-1.92 1.7-2.5.44-.59.84-1.1 1.21-1.56a11.1 11.1 0 0 1 2.5-2.31c.46-.3.91-.52 1.36-.64a2.3 2.3 0 0 1 1.28.01c.42.13.8.42 1.14.88.17 2 .24 3.33.22 3.99-.06.96-.25 2.28-.57 3.95l.93-1.12c.36-.4.7-.8 1.04-1.2.92-1.01 1.54-1.8 1.87-2.36a4.83 4.83 0 0 1 3.3-2.07 4.74 4.74 0 0 1 3.15.41c.35.19.56.42.63.7.1.28.02.52-.22.72-.22.2-.34.43-.38.67a4.23 4.23 0 0 1-1.2 2.88c-.53.52-1.12 1.2-1.77 2.04a131.87 131.87 0 0 0-4.08 5.51c-.71.98-1.38 1.86-2.01 2.64-1.41 1.81-2.4 2.75-2.97 2.81-.8.2-1.38.3-1.72.27a7.26 7.26 0 0 1-1.74-.53c-.45-.18-.67-.9-.66-2.17 0-.68.09-1.6.26-2.76.3-2.01.44-3.14.39-3.36a39.69 39.69 0 0 1-2.87 3.92c-.47.52-.82.85-1.04 1l-.77.61c-.43.57-1.13.88-2.1.91-.83.06-1.52-.1-2.07-.48-.6-.42-.67-.9-.21-1.42.85-2.08 2.65-5.23 5.4-9.44ZM36.38 12.7a328 328 0 0 1-3.35 4.75l-2.77 3.9-2.33 3.3-2.02 2.86a3.25 3.25 0 0 1-2.5 1.96c-.65.1-1.37.02-2.16-.22a4.67 4.67 0 0 1-1.68-.8c-.35-.29-.52-.6-.53-.96-.03-.36.09-.74.35-1.15.25-.43.64-1 1.16-1.7.53-.71 1.22-1.68 2.06-2.9.87-1.23 1.75-2.46 2.66-3.7a63.35 63.35 0 0 1 5.05-6.37 2.63 2.63 0 0 1 2-.88c.27-.01.53-.04.78-.08s.52-.25.8-.63c.32-.38.72-.57 1.22-.6.5-.02.94.1 1.29.37.37.25.59.63.65 1.13.08.5-.14 1.07-.68 1.73ZM24.17 6.7l.1.05a7.53 7.53 0 0 1 1.77 3.97c.18 1.85-.97 3.5-3.45 4.97a13.06 13.06 0 0 1-3.32 1.39c.2.25.38.46.57.61.21.15.48.4.82.75.35.34.49.84.42 1.5a4.8 4.8 0 0 1-.73 2.04c-.42.71-1 1.4-1.75 2.07a8.74 8.74 0 0 1-2.56 1.59c-2.24.93-4.5.92-6.79-.03-.34-.1-.55-.2-.62-.28a5.8 5.8 0 0 1-.17-.2.93.93 0 0 0-.32-.18 3.5 3.5 0 0 1-3.32-.43 3.07 3.07 0 0 1-1.02-1.3c-.2-.54-.2-1.15.01-1.85.2-.45.4-.78.6-1.01 0-.18.03-.39.1-.62a72.7 72.7 0 0 1 3.99-6.89c2.13-3.08 4.1-5.29 5.89-6.63a7.36 7.36 0 0 1 5.18-1.52c1.89.13 3.42.8 4.6 2ZM10.13 22.83c.23 0 .41.05.54.13.16.07.35.12.57.15.54.1 1.33 0 2.39-.33.72-.38 1.18-.84 1.38-1.36.2-.53.22-.89.07-1.1a1.29 1.29 0 0 0-.73-.48 4.6 4.6 0 0 0-1.15-.17c-.42-.04-.82-.1-1.2-.2l-.01.06c-.2.33-.39.61-.56.85l-.48.7c-.34.55-.65 1.11-.93 1.71l.1.04Zm9.24-12.4c-.52-.24-1.23 0-2.13.72a7.2 7.2 0 0 0-1.7 2.32c.42-.05.83-.07 1.22-.07.4 0 .8-.03 1.16-.08.9-.1 1.58-.34 2.07-.72.53-.34.78-.7.73-1.06-.12-.35-.4-.71-.8-1.1a.6.6 0 0 1-.55-.02Z" fill="#000"/><path d="M70.77 22.94a7.48 7.48 0 0 1 4.48-1.27c1.02.06 1.9.37 2.65.93.87-.5 1.8-.48 2.8.03.9.48 1.56 1.27 1.96 2.4 0 .13.01.34.04.62.05.29.08.6.1.94.23 2.06-.44 4.47-2 7.23a23.12 23.12 0 0 1-7.23 8.01 9.75 9.75 0 0 1-2.77 1.3 6.98 6.98 0 0 1-5-.1 5.64 5.64 0 0 1-2.53-1.69c-2.53-2.39-2.56-5.78-.1-10.15a22.73 22.73 0 0 1 7.6-8.25Zm-4.03 14.31-.07.16-.04.3c-.06.6-.02 1.08.14 1.46.16.36.31.6.45.72l.66-.24c.22-.07.43-.17.62-.3a16.93 16.93 0 0 0 4.64-5.03 19.9 19.9 0 0 0 2.82-6.52 51.1 51.1 0 0 0-5.87 4.83 15.1 15.1 0 0 0-3.35 4.62ZM59.62 16.8c2.73.27 4.63 1.2 5.7 2.8.51.76.71 1.7.6 2.82a6.68 6.68 0 0 1-1.42 3.43c-.38.55-.86.9-1.44 1.06a3.24 3.24 0 0 1-2.97-.53c-.35-.3-.5-.62-.44-.96l-.08-.6c-.23-.78-.94-1.09-2.14-.93a8.83 8.83 0 0 0-3.4 1.31 9.26 9.26 0 0 0-3.83 4.13c-.24.66-.19 1.35.17 2.04.6.71 1.28 1.16 2.04 1.36a5.7 5.7 0 0 0 3.92-.47c.5-.26.76-.47.81-.64l.26-.27c.09-.09.16-.18.23-.28a26.36 26.36 0 0 0 .14.04c-.06-.01-.03 0 .07.05l.14.1c-1.11.52-2.01.43-2.69-.29-.26-.3-.48-.59-.67-.88-.18-.3-.38-.48-.6-.53-.32-.34-.28-.78.12-1.34.17-.22.4-.4.7-.55.32-.16.68-.22 1.08-.2 2.02-.22 3.73.1 5.12.98.62.39.97.9 1.05 1.53.1.61.04 1.26-.2 1.92-.25.67-.6 1.31-1.09 1.93a7.4 7.4 0 0 1-1.34 1.43c-.43.32-1.01.68-1.74 1.08-.71.4-1.56.75-2.54 1.04-2.42.68-4.77.65-7.06-.1-3.32-1.08-4.87-3.05-4.66-5.92.06-.91.27-1.9.62-2.97a19.04 19.04 0 0 1 5.44-7.85 19.62 19.62 0 0 1 4.4-2.81 9.7 9.7 0 0 1 3.44-.88c.64-.06 1.4-.08 2.26-.04Z" fill="#FFC805"/><path d="M33.35 19.52c.72-1.09 1.3-1.92 1.7-2.5.44-.59.84-1.1 1.21-1.56a11.1 11.1 0 0 1 2.5-2.31c.46-.3.91-.52 1.36-.64a2.3 2.3 0 0 1 1.28.01c.42.13.8.42 1.14.88.17 2 .24 3.33.22 3.99-.06.96-.25 2.28-.57 3.95l.93-1.12c.36-.4.7-.8 1.04-1.2.92-1.01 1.54-1.8 1.87-2.36a4.83 4.83 0 0 1 3.3-2.07 4.74 4.74 0 0 1 3.15.41c.35.19.56.42.63.7.1.28.02.52-.22.72-.22.2-.34.43-.38.67a4.23 4.23 0 0 1-1.2 2.88c-.53.52-1.12 1.2-1.77 2.04a131.87 131.87 0 0 0-4.08 5.51c-.71.98-1.38 1.86-2.01 2.64-1.41 1.81-2.4 2.75-2.97 2.81-.8.2-1.38.3-1.72.27a7.26 7.26 0 0 1-1.74-.53c-.45-.18-.67-.9-.66-2.17 0-.68.09-1.6.26-2.76.3-2.01.44-3.14.39-3.36a39.69 39.69 0 0 1-2.87 3.92c-.47.52-.82.85-1.04 1l-.77.61c-.43.57-1.13.88-2.1.91-.83.06-1.52-.1-2.07-.48-.6-.42-.67-.9-.21-1.42.85-2.08 2.65-5.23 5.4-9.44ZM35.38 11.7a328 328 0 0 1-3.35 4.75l-2.77 3.9-2.33 3.3-2.02 2.86a3.25 3.25 0 0 1-2.5 1.96c-.65.1-1.37.02-2.16-.22a4.67 4.67 0 0 1-1.68-.8c-.35-.29-.52-.6-.53-.96-.03-.36.09-.74.35-1.15.25-.43.64-1 1.16-1.7.53-.71 1.22-1.68 2.06-2.9.87-1.23 1.75-2.46 2.66-3.7a63.35 63.35 0 0 1 5.05-6.37 2.63 2.63 0 0 1 2-.88c.27-.01.53-.04.78-.08s.52-.25.8-.63c.32-.38.72-.57 1.22-.6.5-.02.94.1 1.29.37.37.25.59.63.65 1.13.08.5-.14 1.07-.68 1.73ZM23.17 5.7l.1.05a7.53 7.53 0 0 1 1.77 3.97c.18 1.85-.97 3.5-3.45 4.97a13.06 13.06 0 0 1-3.32 1.39c.2.25.38.46.57.61.21.15.48.4.82.75.35.34.49.84.42 1.5a4.8 4.8 0 0 1-.73 2.04c-.42.71-1 1.4-1.75 2.07a8.74 8.74 0 0 1-2.56 1.59c-2.24.93-4.5.92-6.79-.03-.34-.1-.55-.2-.62-.28a5.8 5.8 0 0 1-.17-.2.93.93 0 0 0-.32-.18 3.5 3.5 0 0 1-3.32-.43 3.07 3.07 0 0 1-1.02-1.3c-.2-.54-.2-1.15.01-1.85.2-.45.4-.78.6-1.01 0-.18.03-.39.1-.62a72.7 72.7 0 0 1 3.99-6.89c2.13-3.08 4.1-5.29 5.89-6.63a7.36 7.36 0 0 1 5.18-1.52c1.89.13 3.42.8 4.6 2ZM9.13 21.83c.23 0 .41.05.54.13.16.07.35.12.57.15.54.1 1.33 0 2.39-.33.72-.38 1.18-.84 1.38-1.36.2-.53.22-.89.07-1.1a1.29 1.29 0 0 0-.73-.48 4.6 4.6 0 0 0-1.15-.17c-.42-.04-.82-.1-1.2-.2l-.01.06c-.2.33-.39.61-.56.85l-.48.7c-.34.55-.65 1.11-.93 1.71l.1.04Zm9.24-12.4c-.52-.24-1.23 0-2.13.72a7.2 7.2 0 0 0-1.7 2.32c.42-.05.83-.07 1.22-.07.4 0 .8-.03 1.16-.08.9-.1 1.58-.34 2.07-.72.53-.34.78-.7.73-1.06-.12-.35-.4-.72-.8-1.1a.6.6 0 0 1-.55-.02ZM70.77 22.94a7.48 7.48 0 0 1 4.48-1.27c1.02.06 1.9.37 2.65.93.87-.5 1.8-.48 2.8.03.9.48 1.56 1.27 1.96 2.4 0 .13.01.34.04.62.05.29.08.6.1.94.23 2.06-.44 4.47-2 7.23a23.12 23.12 0 0 1-7.23 8.01 9.75 9.75 0 0 1-2.77 1.3 6.98 6.98 0 0 1-5-.1 5.64 5.64 0 0 1-2.53-1.69c-2.53-2.39-2.56-5.78-.1-10.15a22.73 22.73 0 0 1 7.6-8.25Zm-4.03 14.31-.07.16-.04.3c-.06.6-.02 1.08.14 1.46.16.36.31.6.45.72l.66-.24c.22-.07.43-.17.62-.3a16.93 16.93 0 0 0 4.64-5.03 19.9 19.9 0 0 0 2.82-6.52 51.1 51.1 0 0 0-5.87 4.83 15.1 15.1 0 0 0-3.35 4.62Z" fill="#FFC805"/><path d="M59.62 16.8c2.73.27 4.63 1.2 5.7 2.8.51.76.71 1.7.6 2.82a6.68 6.68 0 0 1-1.42 3.43c-.38.55-.86.9-1.44 1.06a3.24 3.24 0 0 1-2.97-.53c-.35-.3-.5-.62-.44-.96l-.08-.6c-.23-.78-.94-1.09-2.14-.93a8.83 8.83 0 0 0-3.4 1.31 9.26 9.26 0 0 0-3.83 4.13c-.24.66-.19 1.35.17 2.04.6.71 1.28 1.16 2.04 1.36a5.7 5.7 0 0 0 3.92-.47c.5-.26.76-.47.81-.64l.26-.27c.09-.09.16-.18.23-.28a26.36 26.36 0 0 0 .14.04c-.06-.01-.03 0 .07.05l.14.1c-1.11.52-2.01.43-2.69-.29-.26-.3-.48-.59-.67-.88-.18-.3-.38-.48-.6-.53-.32-.34-.28-.78.12-1.34.17-.22.4-.4.7-.55.32-.16.68-.22 1.08-.2 2.02-.22 3.73.1 5.12.98.62.39.97.9 1.05 1.53.1.61.04 1.26-.2 1.92-.25.67-.6 1.31-1.09 1.93a7.4 7.4 0 0 1-1.34 1.43c-.43.32-1.01.68-1.74 1.08-.71.4-1.56.75-2.54 1.04-2.42.68-4.77.65-7.06-.1-3.32-1.08-4.87-3.05-4.66-5.92.06-.91.27-1.9.62-2.97a19.04 19.04 0 0 1 5.44-7.85 19.62 19.62 0 0 1 4.4-2.81 9.7 9.7 0 0 1 3.44-.88c.64-.06 1.4-.08 2.26-.04Z" fill="#FFC805"/><path d="M33.35 19.52c.72-1.09 1.3-1.92 1.7-2.5.44-.59.84-1.1 1.21-1.56a11.1 11.1 0 0 1 2.5-2.31c.46-.3.91-.52 1.36-.64a2.3 2.3 0 0 1 1.28.01c.42.13.8.42 1.14.88.17 2 .24 3.33.22 3.99-.06.96-.25 2.28-.57 3.95l.93-1.12c.36-.4.7-.8 1.04-1.2.92-1.01 1.54-1.8 1.87-2.36a4.83 4.83 0 0 1 3.3-2.07 4.74 4.74 0 0 1 3.15.41c.35.19.56.42.63.7.1.28.02.52-.22.72-.22.2-.34.43-.38.67a4.23 4.23 0 0 1-1.2 2.88c-.53.52-1.12 1.2-1.77 2.04a131.87 131.87 0 0 0-4.08 5.51c-.71.98-1.38 1.86-2.01 2.64-1.41 1.81-2.4 2.75-2.97 2.81-.8.2-1.38.3-1.72.27a7.26 7.26 0 0 1-1.74-.53c-.45-.18-.67-.9-.66-2.17 0-.68.09-1.6.26-2.76.3-2.01.44-3.14.39-3.36a39.69 39.69 0 0 1-2.87 3.92c-.47.52-.82.85-1.04 1l-.77.61c-.43.57-1.13.88-2.1.91-.83.06-1.52-.1-2.07-.48-.6-.42-.67-.9-.21-1.42.85-2.08 2.65-5.23 5.4-9.44ZM35.38 11.7a328 328 0 0 1-3.35 4.75l-2.77 3.9-2.33 3.3-2.02 2.86a3.25 3.25 0 0 1-2.5 1.96c-.65.1-1.37.02-2.16-.22a4.67 4.67 0 0 1-1.68-.8c-.35-.29-.52-.6-.53-.96-.03-.36.09-.74.35-1.15.25-.43.64-1 1.16-1.7.53-.71 1.22-1.68 2.06-2.9.87-1.23 1.75-2.46 2.66-3.7a63.35 63.35 0 0 1 5.05-6.37 2.63 2.63 0 0 1 2-.88c.27-.01.53-.04.78-.08s.52-.25.8-.63c.32-.38.72-.57 1.22-.6.5-.02.94.1 1.29.37.37.25.59.63.65 1.13.08.5-.14 1.07-.68 1.73ZM23.17 5.7l.1.05a7.53 7.53 0 0 1 1.77 3.97c.18 1.85-.97 3.5-3.45 4.97a13.06 13.06 0 0 1-3.32 1.39c.2.25.38.46.57.61.21.15.48.4.82.75.35.34.49.84.42 1.5a4.8 4.8 0 0 1-.73 2.04c-.42.71-1 1.4-1.75 2.07a8.74 8.74 0 0 1-2.56 1.59c-2.24.93-4.5.92-6.79-.03-.34-.1-.55-.2-.62-.28a5.8 5.8 0 0 1-.17-.2.93.93 0 0 0-.32-.18 3.5 3.5 0 0 1-3.32-.43 3.07 3.07 0 0 1-1.02-1.3c-.2-.54-.2-1.15.01-1.85.2-.45.4-.78.6-1.01 0-.18.03-.39.1-.62a72.7 72.7 0 0 1 3.99-6.89c2.13-3.08 4.1-5.29 5.89-6.63a7.36 7.36 0 0 1 5.18-1.52c1.89.13 3.42.8 4.6 2ZM9.13 21.83c.23 0 .41.05.54.13.16.07.35.12.57.15.54.1 1.33 0 2.39-.33.72-.38 1.18-.84 1.38-1.36.2-.53.22-.89.07-1.1a1.29 1.29 0 0 0-.73-.48 4.6 4.6 0 0 0-1.15-.17c-.42-.04-.82-.1-1.2-.2l-.01.06c-.2.33-.39.61-.56.85l-.48.7c-.34.55-.65 1.11-.93 1.71l.1.04Zm9.24-12.4c-.52-.24-1.23 0-2.13.72a7.2 7.2 0 0 0-1.7 2.32c.42-.05.83-.07 1.22-.07.4 0 .8-.03 1.16-.08.9-.1 1.58-.34 2.07-.72.53-.34.78-.7.73-1.06-.12-.35-.4-.72-.8-1.1a.6.6 0 0 1-.55-.02Z" fill="#FFC805"/><defs><filter id="a" x=".65" y="1.68" width="88.19" height="47.86" filterUnits="userSpaceOnUse" color-interpolation-filters="sRGB"><feFlood flood-opacity="0" result="BackgroundImageFix"/><feColorMatrix in="SourceAlpha" values="0 0 0 0 0 0 0 0 0 0 0 0 0 0 0 0 0 0 127 0" result="hardAlpha"/><feOffset dx="2" dy="2"/><feComposite in2="hardAlpha" operator="out"/><feColorMatrix values="0 0 0 0 0 0 0 0 0 0 0 0 0 0 0 0 0 0 1 0"/><feBlend in2="BackgroundImageFix" result="effect1_dropShadow_2_72"/><feBlend in="SourceGraphic" in2="effect1_dropShadow_2_72" result="shape"/></filter></defs></svg>